<svg xmlns="http://www.w3.org/2000/svg" viewBox="-82.29998596191406 79.99972534179688 739.5999755859375 360"> <svg xmlns="http://www.w3.org/2000/svg" viewBox="0.8847630023956299 0.2282389998435974 174.23023986816406 216.5277557373047" fill="none" height="220" width="177.0241999665102" y="149.99972534179688" x="198.9879000167449" preserveAspectRatio="xMinYMin" style="overflow: visible;"><path fill-rule="evenodd" clip-rule="evenodd" d="M87.9998 0.228239L90.1149 2.33085L135 46.9518V22.9584H141V52.9165L175.115 86.8308L170.885 91.086L87.9998 8.6886L5.11487 91.086L0.884763 86.8308L85.8848 2.33085L87.9998 0.228239ZM173 210.756V216.756H2.99982V210.756H173ZM76.9998 69H84.9998V79H76.9998V69ZM84.9998 85H76.9998V95H84.9998V85ZM91.9998 69H99.9998V79H91.9998V69ZM99.9998 85H91.9998V95H99.9998V85Z" fill="url(#paint0_linear_24234_5270)" style="fill: url(#paint0_linear_24234_5270);"></path><linearGradient id="paint0_linear_24234_5270" x1="188.312" y1="-38.2539" x2="6.18444" y2="204.284" gradientUnits="userSpaceOnUse" style=""><stop stop-color="#EAD6B9"></stop><stop offset="1" stop-color="#A17D5E"></stop></linearGradient></svg> <svg y="336.21999740600586" viewBox="1.559999942779541 -0.04000000283122063 248.1300048828125 11.640000343322754" x="163.43499755859375" height="11.640000343322754" width="248.1300048828125" style="overflow: visible;"><g fill="#000000" fill-opacity="1" style=""><path d="M5.04 11.25L1.56 11.25L1.56 0.41L4.51 0.41Q6.12 0.41 7.25 0.90Q8.38 1.39 9.07 2.21Q9.76 3.02 10.09 4.00Q10.41 4.98 10.41 5.96L10.41 5.96Q10.41 7.19 9.98 8.16Q9.55 9.13 8.80 9.82Q8.05 10.52 7.09 10.88Q6.12 11.25 5.04 11.25L5.04 11.25ZM3.01 1.80L3.01 9.86L4.75 9.86Q5.65 9.86 6.41 9.59Q7.17 9.31 7.73 8.80Q8.29 8.29 8.61 7.55Q8.92 6.81 8.92 5.87L8.92 5.87Q8.92 4.86 8.59 4.10Q8.27 3.35 7.69 2.84Q7.13 2.33 6.40 2.06Q5.68 1.80 4.89 1.80L4.89 1.80L3.01 1.80ZM15.18 5.83L15.18 5.83Q15.18 4.71 15.61 3.71Q16.04 2.71 16.80 1.94Q17.57 1.17 18.56 0.73Q19.56 0.29 20.71 0.29L20.71 0.29Q21.86 0.29 22.85 0.73Q23.85 1.17 24.62 1.94Q25.39 2.71 25.83 3.71Q26.27 4.71 26.27 5.83L26.27 5.83Q26.27 6.99 25.83 8.00Q25.39 9 24.63 9.76Q23.87 10.52 22.86 10.94Q21.86 11.37 20.71 11.37L20.71 11.37Q19.56 11.37 18.56 10.95Q17.57 10.53 16.80 9.78Q16.04 9.03 15.61 8.03Q15.18 7.02 15.18 5.83ZM16.68 5.85L16.68 5.85Q16.68 6.71 17.00 7.45Q17.31 8.19 17.86 8.76Q18.42 9.33 19.16 9.65Q19.89 9.97 20.75 9.97L20.75 9.97Q21.59 9.97 22.32 9.65Q23.05 9.33 23.59 8.76Q24.13 8.19 24.45 7.45Q24.77 6.71 24.77 5.83L24.77 5.83Q24.77 4.98 24.45 4.22Q24.13 3.46 23.58 2.89Q23.02 2.33 22.29 2.00Q21.55 1.68 20.71 1.68L20.71 1.68Q19.86 1.68 19.13 2.01Q18.39 2.34 17.84 2.91Q17.28 3.48 16.98 4.24Q16.68 5.00 16.68 5.85ZM41.14 11.60L41.10 11.60L32.71 3.09L33.13 3.20L33.16 11.25L31.71 11.25L31.71 0.08L31.79 0.08L40.08 8.61L39.73 8.54L39.70 0.41L41.14 0.41L41.14 11.60ZM47.27 11.25L47.27 0.41L54.31 0.41L54.31 1.80L48.72 1.80L48.72 5.10L53.71 5.10L53.71 6.50L48.72 6.50L48.72 9.86L54.52 9.86L54.52 11.25L47.27 11.25ZM67.78 11.25L67.78 0.41L74.22 0.41L74.22 1.80L69.24 1.80L69.24 5.27L73.60 5.27L73.60 6.65L69.24 6.65L69.24 11.25L67.78 11.25ZM78.97 11.25L77.55 11.25L82.29-0.04L82.38-0.04L87.10 11.25L85.44 11.25L81.90 2.24L82.93 1.56L78.97 11.25ZM79.90 8.40L80.32 7.14L84.36 7.14L84.84 8.40L79.90 8.40ZM98.31 1.21L97.75 2.34Q97.20 2.05 96.54 1.85Q95.88 1.63 95.25 1.63L95.25 1.63Q94.38 1.63 93.86 2.04Q93.34 2.45 93.34 3.12L93.34 3.12Q93.34 3.63 93.67 3.98Q94.00 4.33 94.54 4.59Q95.08 4.85 95.67 5.07L95.67 5.07Q96.18 5.27 96.67 5.50Q97.17 5.75 97.57 6.11Q97.96 6.46 98.20 6.99Q98.43 7.52 98.43 8.29L98.43 8.29Q98.43 9.15 98.00 9.86Q97.57 10.56 96.78 10.96Q95.98 11.37 94.89 11.37L94.89 11.37Q94.17 11.37 93.52 11.21Q92.86 11.04 92.31 10.78Q91.75 10.52 91.32 10.23L91.32 10.23L91.96 9.09Q92.32 9.35 92.79 9.58Q93.25 9.81 93.76 9.95Q94.27 10.10 94.75 10.10L94.75 10.10Q95.26 10.10 95.77 9.91Q96.27 9.72 96.60 9.33Q96.93 8.94 96.93 8.29L96.93 8.29Q96.93 7.74 96.64 7.37Q96.34 7.00 95.86 6.74Q95.38 6.48 94.84 6.27L94.84 6.27Q94.33 6.08 93.81 5.84Q93.28 5.61 92.83 5.27Q92.38 4.94 92.11 4.44Q91.84 3.95 91.84 3.24L91.84 3.24Q91.84 2.38 92.26 1.75Q92.67 1.11 93.39 0.74Q94.11 0.38 95.04 0.35L95.04 0.35Q96.09 0.35 96.89 0.60Q97.69 0.86 98.31 1.21L98.31 1.21ZM103.00 1.80L103.00 0.41L110.20 0.41L110.20 1.80L107.29 1.80L107.29 11.25L105.84 11.25L105.84 1.80L103.00 1.80ZM113.33 10.46L113.33 10.46Q113.33 10.13 113.57 9.89Q113.82 9.66 114.12 9.66L114.12 9.66Q114.39 9.66 114.64 9.89Q114.88 10.13 114.88 10.46L114.88 10.46Q114.88 10.81 114.64 11.03Q114.39 11.25 114.12 11.25L114.12 11.25Q113.82 11.25 113.57 11.03Q113.33 10.81 113.33 10.46L113.33 10.46ZM131.11 11.25L127.63 11.25L127.63 0.41L130.59 0.41Q132.19 0.41 133.33 0.90Q134.46 1.39 135.15 2.21Q135.84 3.02 136.16 4.00Q136.48 4.98 136.48 5.96L136.48 5.96Q136.48 7.19 136.06 8.16Q135.63 9.13 134.88 9.82Q134.13 10.52 133.16 10.88Q132.19 11.25 131.11 11.25L131.11 11.25ZM129.09 1.80L129.09 9.86L130.83 9.86Q131.73 9.86 132.49 9.59Q133.24 9.31 133.81 8.80Q134.37 8.29 134.69 7.55Q135 6.81 135 5.87L135 5.87Q135 4.86 134.67 4.10Q134.34 3.35 133.77 2.84Q133.20 2.33 132.48 2.06Q131.76 1.80 130.96 1.80L130.96 1.80L129.09 1.80ZM141.25 5.83L141.25 5.83Q141.25 4.71 141.68 3.71Q142.11 2.71 142.87 1.94Q143.64 1.17 144.64 0.73Q145.63 0.29 146.79 0.29L146.79 0.29Q147.93 0.29 148.93 0.73Q149.92 1.17 150.70 1.94Q151.47 2.71 151.90 3.71Q152.34 4.71 152.34 5.83L152.34 5.83Q152.34 6.99 151.90 8.00Q151.47 9 150.70 9.76Q149.94 10.52 148.93 10.94Q147.93 11.37 146.79 11.37L146.79 11.37Q145.63 11.37 144.64 10.95Q143.64 10.53 142.87 9.78Q142.11 9.03 141.68 8.03Q141.25 7.02 141.25 5.83ZM142.75 5.85L142.75 5.85Q142.75 6.71 143.07 7.45Q143.38 8.19 143.94 8.76Q144.49 9.33 145.23 9.65Q145.96 9.97 146.82 9.97L146.82 9.97Q147.66 9.97 148.39 9.65Q149.13 9.33 149.67 8.76Q150.21 8.19 150.52 7.45Q150.84 6.71 150.84 5.83L150.84 5.83Q150.84 4.98 150.52 4.22Q150.21 3.46 149.65 2.89Q149.10 2.33 148.36 2.00Q147.63 1.68 146.79 1.68L146.79 1.68Q145.93 1.68 145.20 2.01Q144.46 2.34 143.91 2.91Q143.35 3.48 143.05 4.24Q142.75 5.00 142.75 5.85ZM167.22 11.60L167.17 11.60L158.79 3.09L159.21 3.20L159.24 11.25L157.78 11.25L157.78 0.08L157.86 0.08L166.15 8.61L165.81 8.54L165.78 0.41L167.22 0.41L167.22 11.60ZM173.34 11.25L173.34 0.41L180.39 0.41L180.39 1.80L174.79 1.80L174.79 5.10L179.79 5.10L179.79 6.50L174.79 6.50L174.79 9.86L180.60 9.86L180.60 11.25L173.34 11.25ZM193.86 0.41L196.74 0.41Q197.56 0.41 198.26 0.62Q198.96 0.84 199.48 1.27Q199.99 1.70 200.29 2.32Q200.58 2.94 200.58 3.77L200.58 3.77Q200.58 4.41 200.39 5.03Q200.20 5.64 199.77 6.14Q199.33 6.65 198.64 6.95Q197.94 7.26 196.92 7.26L196.92 7.26L195.31 7.26L195.31 11.25L193.86 11.25L193.86 0.41ZM195.31 5.87L196.89 5.87Q197.53 5.87 197.96 5.67Q198.39 5.48 198.63 5.17Q198.87 4.86 198.97 4.50Q199.08 4.14 199.08 3.83L199.08 3.83Q199.08 3.50 198.97 3.14Q198.85 2.79 198.61 2.49Q198.36 2.19 197.96 2.00Q197.56 1.80 196.99 1.80L196.99 1.80L195.31 1.80L195.31 5.87ZM196.95 6.74L198.67 6.69L201.51 11.25L199.83 11.25L196.95 6.74ZM206.74 11.25L206.74 0.41L208.20 0.41L208.20 11.25L206.74 11.25ZM222.81 5.94L222.81 10.32Q222.58 10.52 222.18 10.70Q221.77 10.89 221.29 11.04Q220.80 11.19 220.28 11.28Q219.76 11.37 219.31 11.37L219.31 11.37Q218.01 11.37 216.97 10.96Q215.92 10.56 215.18 9.84Q214.44 9.12 214.04 8.14Q213.64 7.17 213.64 6.03L213.64 6.03Q213.64 4.68 214.09 3.61Q214.53 2.54 215.30 1.79Q216.07 1.05 217.08 0.67Q218.08 0.29 219.21 0.29L219.21 0.29Q220.15 0.29 220.96 0.51Q221.77 0.74 222.39 1.08L222.39 1.08L221.89 2.42Q221.59 2.24 221.15 2.09Q220.71 1.94 220.24 1.84Q219.78 1.74 219.37 1.74L219.37 1.74Q218.41 1.74 217.63 2.03Q216.85 2.33 216.30 2.87Q215.74 3.42 215.44 4.19Q215.14 4.96 215.14 5.92L215.14 5.92Q215.14 6.81 215.44 7.54Q215.74 8.28 216.30 8.81Q216.85 9.35 217.63 9.64Q218.40 9.93 219.33 9.93L219.33 9.93Q219.88 9.93 220.42 9.82Q220.96 9.71 221.35 9.50L221.35 9.50L221.35 7.33L219.19 7.33L219.19 5.94L222.81 5.94ZM235.72 0.41L237.16 0.41L237.16 11.25L235.72 11.25L235.72 6.50L230.04 6.50L230.04 11.25L228.58 11.25L228.58 0.41L230.04 0.41L230.04 5.12L235.72 5.12L235.72 0.41ZM242.49 1.80L242.49 0.41L249.69 0.41L249.69 1.80L246.78 1.80L246.78 11.25L245.32 11.25L245.32 1.80L242.49 1.80Z" transform="translate(0, 0)"></path></g></svg> <svg y="273.78000259399414" viewBox="1.840000033378601 14.789999961853027 599.5999755859375 41.91999816894531" x="-12.29998596191406" height="41.91999816894531" width="599.5999755859375" style="overflow: visible;"><g fill="#000000" fill-opacity="1" style=""><path d="M6.32 43.04L6.32 43.04L1.84 46.21Q3.01 48.65 5.02 50.75Q7.04 52.84 9.72 54.09Q12.39 55.34 15.50 55.34L15.50 55.34Q17.80 55.34 19.92 54.60Q22.03 53.86 23.72 52.50Q25.40 51.15 26.39 49.16Q27.39 47.18 27.39 44.68L27.39 44.68Q27.39 42.33 26.57 40.57Q25.76 38.81 24.45 37.54Q23.15 36.26 21.55 35.39Q19.94 34.53 18.31 33.97L18.31 33.97Q15.45 32.95 13.67 31.98Q11.88 31.01 11.04 29.91Q10.20 28.82 10.20 27.44L10.20 27.44Q10.20 25.91 11.37 24.76Q12.55 23.61 15.05 23.61L15.05 23.61Q16.83 23.61 18.18 24.30Q19.53 24.99 20.55 26.14Q21.57 27.29 22.29 28.61L22.29 28.61L27.13 25.86Q26.27 23.97 24.63 22.24Q23.00 20.50 20.66 19.35Q18.31 18.21 15.15 18.21L15.15 18.21Q11.93 18.21 9.41 19.43Q6.89 20.66 5.41 22.82Q3.93 24.99 3.93 27.85L3.93 27.85Q3.93 30.35 4.90 32.10Q5.87 33.86 7.34 35.06Q8.82 36.26 10.46 37.05Q12.09 37.84 13.41 38.30L13.41 38.30Q15.66 39.12 17.39 39.96Q19.13 40.80 20.07 42.00Q21.01 43.20 21.01 45.14L21.01 45.14Q21.01 47.28 19.48 48.60Q17.95 49.93 15.50 49.93L15.50 49.93Q13.52 49.93 11.86 49.06Q10.20 48.20 8.85 46.67Q7.50 45.14 6.32 43.04ZM41.62 47.28L41.62 47.28Q41.62 46.16 42.15 45.39Q42.69 44.63 43.76 44.19Q44.83 43.76 46.56 43.76L46.56 43.76Q48.55 43.76 50.34 44.27Q52.12 44.78 53.70 45.90L53.70 45.90L53.70 43.10Q53.24 42.53 52.12 41.85Q51.00 41.16 49.29 40.65Q47.58 40.14 45.24 40.14L45.24 40.14Q40.85 40.14 38.45 42.15Q36.06 44.17 36.06 47.58L36.06 47.58Q36.06 49.98 37.18 51.66Q38.30 53.35 40.19 54.21Q42.08 55.08 44.27 55.08L44.27 55.08Q46.31 55.08 48.27 54.34Q50.24 53.60 51.54 52.07Q52.84 50.54 52.84 48.30L52.84 48.30L52.02 45.24Q52.02 47.02 51.20 48.30Q50.39 49.57 49.04 50.26Q47.69 50.95 46.00 50.95L46.00 50.95Q44.73 50.95 43.73 50.54Q42.74 50.13 42.18 49.29Q41.62 48.45 41.62 47.28ZM37.64 33.35L39.88 37.23Q40.44 36.87 41.46 36.34Q42.48 35.80 43.94 35.42Q45.39 35.04 47.02 35.04L47.02 35.04Q48.09 35.04 49.01 35.24Q49.93 35.45 50.62 35.90Q51.31 36.36 51.66 37.08Q52.02 37.79 52.02 38.91L52.02 38.91L52.02 54.57L57.43 54.57L57.43 37.84Q57.43 35.50 56.18 33.86Q54.93 32.23 52.68 31.39Q50.44 30.55 47.58 30.55L47.58 30.55Q44.27 30.55 41.77 31.47Q39.27 32.39 37.64 33.35L37.64 33.35ZM74.51 14.79L68.95 14.79L68.95 54.57L74.51 54.57L74.51 14.79ZM89.10 31.11L83.03 31.11L95.22 56.71L107.36 31.11L101.34 31.11L95.22 46.26L89.10 31.11ZM119.39 47.28L119.39 47.28Q119.39 46.16 119.93 45.39Q120.46 44.63 121.53 44.19Q122.60 43.76 124.34 43.76L124.34 43.76Q126.33 43.76 128.11 44.27Q129.90 44.78 131.48 45.90L131.48 45.90L131.48 43.10Q131.02 42.53 129.90 41.85Q128.78 41.16 127.07 40.65Q125.36 40.14 123.01 40.14L123.01 40.14Q118.63 40.14 116.23 42.15Q113.83 44.17 113.83 47.58L113.83 47.58Q113.83 49.98 114.95 51.66Q116.08 53.35 117.96 54.21Q119.85 55.08 122.04 55.08L122.04 55.08Q124.08 55.08 126.05 54.34Q128.01 53.60 129.31 52.07Q130.61 50.54 130.61 48.30L130.61 48.30L129.79 45.24Q129.79 47.02 128.98 48.30Q128.16 49.57 126.81 50.26Q125.46 50.95 123.78 50.95L123.78 50.95Q122.50 50.95 121.51 50.54Q120.51 50.13 119.95 49.29Q119.39 48.45 119.39 47.28ZM115.41 33.35L117.66 37.23Q118.22 36.87 119.24 36.34Q120.26 35.80 121.71 35.42Q123.16 35.04 124.80 35.04L124.80 35.04Q125.87 35.04 126.79 35.24Q127.70 35.45 128.39 35.90Q129.08 36.36 129.44 37.08Q129.79 37.79 129.79 38.91L129.79 38.91L129.79 54.57L135.20 54.57L135.20 37.84Q135.20 35.50 133.95 33.86Q132.70 32.23 130.46 31.39Q128.21 30.55 125.36 30.55L125.36 30.55Q122.04 30.55 119.54 31.47Q117.05 32.39 115.41 33.35L115.41 33.35ZM156.77 31.11L143.46 31.11L143.46 35.96L156.77 35.96L156.77 31.11ZM152.85 22.95L147.44 22.95L147.44 54.57L152.85 54.57L152.85 22.95ZM165.44 21.78L165.44 21.78Q165.44 23.15 166.49 24.15Q167.53 25.14 168.91 25.14L168.91 25.14Q170.39 25.14 171.41 24.15Q172.43 23.15 172.43 21.78L172.43 21.78Q172.43 20.35 171.41 19.38Q170.39 18.41 168.91 18.41L168.91 18.41Q167.53 18.41 166.49 19.38Q165.44 20.35 165.44 21.78ZM171.67 31.11L166.21 31.11L166.21 54.57L171.67 54.57L171.67 31.11ZM182.58 42.84L182.58 42.84Q182.58 46.41 184.24 49.19Q185.89 51.97 188.78 53.52Q191.66 55.08 195.23 55.08L195.23 55.08Q198.85 55.08 201.70 53.52Q204.56 51.97 206.22 49.19Q207.88 46.41 207.88 42.84L207.88 42.84Q207.88 39.22 206.22 36.47Q204.56 33.71 201.70 32.16Q198.85 30.60 195.23 30.60L195.23 30.60Q191.66 30.60 188.78 32.16Q185.89 33.71 184.24 36.47Q182.58 39.22 182.58 42.84ZM188.24 42.84L188.24 42.84Q188.24 40.65 189.16 38.96Q190.08 37.28 191.66 36.36Q193.24 35.45 195.23 35.45L195.23 35.45Q197.22 35.45 198.80 36.36Q200.38 37.28 201.30 38.96Q202.21 40.65 202.21 42.84L202.21 42.84Q202.21 45.03 201.30 46.69Q200.38 48.35 198.80 49.29Q197.22 50.24 195.23 50.24L195.23 50.24Q193.24 50.24 191.66 49.29Q190.08 48.35 189.16 46.69Q188.24 45.03 188.24 42.84ZM233.32 40.29L233.32 40.29L233.32 54.57L238.99 54.57L238.99 39.63Q238.99 35.45 236.89 33.02Q234.80 30.60 230.83 30.60L230.83 30.60Q228.43 30.60 226.67 31.62Q224.91 32.64 223.79 34.73L223.79 34.73L223.79 31.11L218.23 31.11L218.23 54.57L223.79 54.57L223.79 40.29Q223.79 38.71 224.43 37.51Q225.06 36.31 226.24 35.67Q227.41 35.04 228.99 35.04L228.99 35.04Q231.18 35.04 232.25 36.36Q233.32 37.69 233.32 40.29ZM276.57 33.20L276.57 36.16L282.74 36.16Q286.16 36.16 288.71 35.19Q291.26 34.22 292.71 32.36Q294.17 30.50 294.17 27.85L294.17 27.85Q294.17 24.79 292.71 22.80Q291.26 20.81 288.71 19.84Q286.16 18.87 282.74 18.87L282.74 18.87L271.98 18.87L271.98 54.57L283.36 54.57Q287.18 54.57 290.06 53.47Q292.94 52.38 294.58 50.08Q296.21 47.79 296.21 44.27L296.21 44.27Q296.21 41.72 295.19 39.88Q294.17 38.05 292.38 36.87Q290.60 35.70 288.28 35.11Q285.96 34.53 283.36 34.53L283.36 34.53L276.57 34.53L276.57 37.89L283.00 37.89Q284.53 37.89 285.80 38.22Q287.08 38.56 288.05 39.30Q289.02 40.04 289.53 41.11Q290.04 42.18 290.04 43.66L290.04 43.66Q290.04 45.65 289.12 46.95Q288.20 48.25 286.62 48.91Q285.04 49.57 283.00 49.57L283.00 49.57L278.00 49.57L278.00 23.82L282.34 23.82Q284.89 23.82 286.44 25.04Q288.00 26.27 288.00 28.51L288.00 28.51Q288.00 29.99 287.28 31.03Q286.57 32.08 285.29 32.64Q284.02 33.20 282.34 33.20L282.34 33.20L276.57 33.20ZM312.94 45.39L312.94 45.39L312.94 31.11L307.28 31.11L307.28 46.00Q307.28 50.18 309.39 52.63Q311.51 55.08 315.44 55.08L315.44 55.08Q317.88 55.08 319.64 54.03Q321.40 52.99 322.52 50.95L322.52 50.95L322.52 54.57L328.03 54.57L328.03 31.11L322.52 31.11L322.52 45.39Q322.52 46.97 321.86 48.14Q321.20 49.32 320.03 49.98Q318.85 50.64 317.32 50.64L317.32 50.64Q315.08 50.64 314.01 49.27Q312.94 47.89 312.94 45.39ZM339.97 21.78L339.97 21.78Q339.97 23.15 341.01 24.15Q342.06 25.14 343.43 25.14L343.43 25.14Q344.91 25.14 345.93 24.15Q346.95 23.15 346.95 21.78L346.95 21.78Q346.95 20.35 345.93 19.38Q344.91 18.41 343.43 18.41L343.43 18.41Q342.06 18.41 341.01 19.38Q339.97 20.35 339.97 21.78ZM346.19 31.11L340.73 31.11L340.73 54.57L346.19 54.57L346.19 31.11ZM364.45 14.79L358.89 14.79L358.89 54.57L364.45 54.57L364.45 14.79ZM399.74 14.79L394.18 14.79L394.18 54.57L399.74 54.57L399.74 14.79ZM374.75 42.84L374.75 42.84Q374.75 46.67 376.33 49.42Q377.91 52.17 380.54 53.63Q383.16 55.08 386.17 55.08L386.17 55.08Q389.13 55.08 391.35 53.60Q393.57 52.12 394.87 49.37Q396.17 46.61 396.17 42.84L396.17 42.84Q396.17 39.02 394.87 36.29Q393.57 33.56 391.35 32.08Q389.13 30.60 386.17 30.60L386.17 30.60Q383.16 30.60 380.54 32.05Q377.91 33.51 376.33 36.24Q374.75 38.96 374.75 42.84ZM380.46 42.84L380.46 42.84Q380.46 40.49 381.43 38.81Q382.40 37.13 384.00 36.26Q385.61 35.39 387.50 35.39L387.50 35.39Q389.13 35.39 390.66 36.26Q392.19 37.13 393.18 38.79Q394.18 40.44 394.18 42.84L394.18 42.84Q394.18 45.24 393.18 46.89Q392.19 48.55 390.66 49.42Q389.13 50.29 387.50 50.29L387.50 50.29Q385.61 50.29 384.00 49.42Q382.40 48.55 381.43 46.87Q380.46 45.19 380.46 42.84ZM421.87 55.08L421.87 55.08Q425.95 55.08 428.86 53.47Q431.77 51.87 433.65 48.71L433.65 48.71L428.86 46.82Q427.79 48.71 426.11 49.62Q424.42 50.54 422.13 50.54L422.13 50.54Q419.99 50.54 418.51 49.62Q417.03 48.71 416.24 46.92Q415.45 45.14 415.50 42.64L415.50 42.64Q415.50 40.09 416.29 38.35Q417.08 36.62 418.53 35.70Q419.99 34.78 422.08 34.78L422.08 34.78Q423.81 34.78 425.11 35.55Q426.41 36.31 427.15 37.69Q427.89 39.07 427.89 40.95L427.89 40.95Q427.89 41.31 427.71 41.82Q427.53 42.33 427.38 42.64L427.38 42.64L429.06 40.29L413.20 40.29L413.20 44.12L433.81 44.12Q433.81 43.91 433.83 43.45Q433.86 42.99 433.86 42.59L433.86 42.59Q433.86 38.81 432.48 36.13Q431.10 33.46 428.48 32.03Q425.85 30.60 422.13 30.60L422.13 30.60Q418.40 30.60 415.65 32.10Q412.90 33.61 411.39 36.36Q409.89 39.12 409.89 42.84L409.89 42.84Q409.89 46.51 411.37 49.27Q412.85 52.02 415.57 53.55Q418.30 55.08 421.87 55.08ZM449.72 54.57L449.72 31.11L444.26 31.11L444.26 54.57L449.72 54.57ZM456.71 36.98L456.71 36.98L459.41 32.33Q458.59 31.37 457.47 30.96Q456.35 30.55 455.07 30.55L455.07 30.55Q453.29 30.55 451.63 31.85Q449.97 33.15 448.93 35.32Q447.88 37.49 447.88 40.29L447.88 40.29L449.72 41.36Q449.72 39.68 450.10 38.43Q450.48 37.18 451.35 36.47Q452.22 35.75 453.59 35.75L453.59 35.75Q454.61 35.75 455.30 36.06Q455.99 36.36 456.71 36.98ZM469.35 46.82L469.35 46.82L466.14 50.08Q467.16 51.41 468.69 52.61Q470.22 53.81 472.21 54.54Q474.20 55.28 476.65 55.28L476.65 55.28Q480.47 55.28 482.74 53.27Q485.01 51.26 485.01 47.94L485.01 47.94Q485.01 45.80 484.04 44.47Q483.07 43.15 481.44 42.23Q479.81 41.31 477.82 40.55L477.82 40.55Q476.39 39.98 475.24 39.47Q474.10 38.96 473.41 38.33Q472.72 37.69 472.72 36.87L472.72 36.87Q472.72 35.90 473.48 35.39Q474.25 34.88 475.47 34.88L475.47 34.88Q477.21 34.88 478.84 35.75Q480.47 36.62 481.59 38.00L481.59 38.00L484.65 34.73Q483.68 33.56 482.31 32.64Q480.93 31.72 479.22 31.16Q477.51 30.60 475.58 30.60L475.58 30.60Q473.43 30.60 471.57 31.29Q469.71 31.98 468.61 33.41Q467.52 34.83 467.52 36.98L467.52 36.98Q467.52 39.07 468.51 40.44Q469.51 41.82 471.06 42.66Q472.62 43.50 474.20 44.12L474.20 44.12Q475.78 44.68 476.95 45.21Q478.13 45.75 478.79 46.49Q479.45 47.23 479.45 48.25L479.45 48.25Q479.45 49.42 478.61 50.08Q477.77 50.75 476.29 50.75L476.29 50.75Q475.12 50.75 473.94 50.29Q472.77 49.83 471.65 48.96Q470.53 48.09 469.35 46.82ZM521.88 18.87L515.87 18.87L515.87 54.57L536.06 54.57L536.06 49.16L521.88 49.16L521.88 18.87ZM551.51 18.87L545.50 18.87L545.50 54.57L565.69 54.57L565.69 49.16L551.51 49.16L551.51 18.87ZM578.09 36.72L578.09 36.72Q578.09 32.90 579.79 30.06Q581.50 27.23 584.26 25.68Q587.01 24.12 590.27 24.12L590.27 24.12Q592.82 24.12 594.89 24.79Q596.96 25.45 598.59 26.60Q600.22 27.74 601.44 29.17L601.44 29.17L601.44 22.03Q599.25 20.15 596.62 19.18Q594.00 18.21 590.07 18.21L590.07 18.21Q586.14 18.21 582.75 19.56Q579.36 20.91 576.86 23.38Q574.36 25.86 572.96 29.25Q571.56 32.64 571.56 36.72L571.56 36.72Q571.56 40.75 572.96 44.14Q574.36 47.53 576.86 50.03Q579.36 52.53 582.75 53.86Q586.14 55.18 590.07 55.18L590.07 55.18Q594.00 55.18 596.62 54.21Q599.25 53.24 601.44 51.41L601.44 51.41L601.44 44.22Q600.22 45.70 598.59 46.84Q596.96 47.99 594.89 48.65Q592.82 49.32 590.27 49.32L590.27 49.32Q587.01 49.32 584.26 47.74Q581.50 46.16 579.79 43.32Q578.09 40.49 578.09 36.72Z" transform="translate(0, 0)"></path></g></svg></svg>